/* XPM */
static char *tile0101664095433[] = {
/* columns rows colors chars-per-pixel */
"64 64 15 1 ",
"  c None",
". c #3E6F00",
"X c #3F7100",
"o c #416F00",
"O c #457501",
"+ c #487701",
"@ c #477901",
"# c #4B7C03",
"$ c #4E7F09",
"% c #507F04",
"& c #4E8105",
"* c #4F8208",
"= c #518206",
"- c #528409",
"; c #53880A",
/* pixels */
"                                                                ",
" #####+++++++#@+##&###+####&##++##+###@+&#&&#&&#+##&@&&@@#####+ ",
" ####+++++++@#++#&#%###+#+#&@&@@######@#&&&&&#&#+#######@###+++ ",
" %###&#@+##+++++&=#####=&&&#@@@&&&=&+++#=&@#&##++&=*&&#%&####+@ ",
" ####&#++++@@+++#=####&&&&&#+#&@&=*##+##=&+#$##++&=&####&##+#@+ ",
" ##+#-*.O#+@@#*;&+#-#@@+#+####@&=$o.&#&###+#+#&&##@@+#@&#++&=## ",
" ##++*#O+#+@@#&;&+#=&@###+#####@#$OO###&###++##&&#@++#+###+&&&# ",
" +++@@@##==&#&&*#####&#=#&##++&#OO+@OO&&#&##+#+#####&+@++@+#=## ",
" +@@+@###=&#&#&&####&%&#####+###@@@++@&&&##+#######&##@+#+@#&## ",
" ##@@&&@+#####@#@O+#&##@##&&&#O@&&@O##&&=&+++#=#@@##&&&##@@##++ ",
" ##@@&&#######&#@O+=&&@##%&&##++&&@++@#&%%+++&=#@#####&#+#@###+ ",
" #@#&#&-=&&+###&@++#&&#&##=*&#&#####OO+#+##$++%#######++#@@#&&& ",
" ####&#&&#+@####@+@##&#+##&=&##&#%%#+@++##+#+##%###&##+##++@##& ",
" &&@+##+@@@@+#++@#+###++#&#&++##==####@@##++###+#####++#&@++@++ ",
" ##@+#@@@@@O+#@@+#+@###@####+#&###=&#@+@++++&###@#&###@##+OO+## ",
" ##@@##@@#@O@#####@++&+#######&&####+###++@#&&##@#&####@OOOOO## ",
" ##@@##@+@########@@+##&#####$&&###%#+##@#+#=#&#@@&######++@++@ ",
" +@@@#++@#&&&####+#+##&&*#**=#&#%%##&&@#@+#+#&&&@&##++#==+@##++ ",
" @#######&&*&#####++##&&&#####&##+#####+++#####+@@###+@$=###### ",
" #@&&##*&&###&=####+##&####+##$$++=&@@&+O+=&++++#@#&$@+##=###== ",
" ###@####*#####@#@@#++####&&#&&&+@###&##O@&#+#++@######&#&@##&= ",
" ##@@#+##&#####@@####@+@#&**&&&=+@@##&#+O@&&#++#+@#+@###&@@@#&# ",
" *&@##&#@&&X@@OX@+@##@++@@@&&&&&##&#*#@####@O+=#@#&###&#######& ",
" *&+#==#&@@@@@OX++#@#&##@@@@&&#&&#%=##@#&&@@O+=#@##&#&&@#@#++## ",
" +###**@@##&@X&*##@####+#+###&#####@####@@@@X@=###@@@+######&=# ",
" ++##*#++@#&&X&**###&#+++#@$&##+@@@@@#*#XO@@.@=&#@@@@#+#*##&#== ",
" +###@@##+@#@@@&$#&#&&*##@&&#@#####@XO##O++#@###@######&@&###=& ",
" #$#+OO&#@##&@&@###*&*#*###&++++&##@XX&&+@++####@###&###&#&###& ",
" +O+#@@&&++&##&&==&########@#@+#######@@@#####@##@O@+@O@+OO###+ ",
" O++@@#=&+@&##&*=%#&####$#@@$+####=&##@@@###@###@@+@++X@@OO##++ ",
" =&#####++#&&*&&+&@##@+#+O@++#######&#&#+####@O@##@@#++#+@++#++ ",
" -=#&&&+#+#&**&X##&&#@##OO@@##########&#@#####OO&##+#####++#%## ",
" &&+@@@@+&#+#=&##&##&##&$#=##++#++#=@##&=#####++%+%+#++#=###### ",
" &&@+#+##=$+#######$#&&#%=#%+##+++&&@+####%###%+%++##+++%%%%### ",
" &&@#$###=#++O@&@O+++#+#+###&&+##&#&##@@@#&&+#%%#++%##&@####### ",
" &&@#+###=#+OO@#@O@+###+####&###&&#####+@@&&+#%###++#&#&&###### ",
" #@&#+@###&**@@@#+$$*#&*###+##++#$#+#%%%##@@###@++##&&&&*###=++ ",
" #&@@@@###&-&@@@#$#$######+######$@##%%#&#@#@###+####&&&&&#&#++ ",
" @@##&#@@@@*#O@+##%%&&++#%#@+#+@##+#==#&=&&#&@###&=#+#&&&&&###+ ",
" ######@+@#&#O@@+##%#&++#####+@+%#++==##&&@###@#+#=##&&&&&&##+# ",
" &##@&#@@&###@@+##&##&#&@O&=&=&###@@==##=&+@@@##+++$$*==#&&+@## ",
" &#####@@&###@@++#+@##%#@O&&*###=#@#&&##&#@#@@@@+#+#$&$#&#&++## ",
" ==+#&&+#&@#@@#++++++###OX##++##;-##&&&#@&&@@@@@#&*&%+#$&#@#### ",
" &*+@#&@@@&##@####++####@O&&+###==######@@@&#@@@##$#=#+#&#&##&# ",
" ######O@#&+#+#=$&&&##@##+&*##=#++##@+###+##=&+@&@@+#%+%#%##### ",
" &&####@#&#@###&#&####@###&&&#%=#+&&@+&#@###&#++&&#####+####### ",
" &&#&#&&&&#+#=&+&-&@+#@###&&=*=-##==@@&#@@@#&+O+===&##+++#+#*+# ",
" &&##+@++&#+#%&@#&###&##=##&&&==+#==####@@###++@&&&##++#######+ ",
" #&##@@XX+#&#@#@####=-**&*&#$#**#%==##+##+@#@@&@@@&@++######### ",
" ###+OOO@+@+####+##&########++#&%===###+@@@@&&@&&#&###&######++ ",
" @@#@XO###@X+##++##&#+#@@+@@OO@#==--&##+OOO@*&#@######=##+++++# ",
" #@@@@@#&&#++&###+&&#+######@@@@#%&##&##O+#######&&#+%###@@+### ",
" ++@@####*#++&##@@&&#++##&&@@@@@++###%##o+&&+@###&*#+@##+++###% ",
" #+#+&&@&&#@&&&#@O@@#&#+#+#@&@&#++#&####++#+@@######@####++#%## ",
" @@###&&#@#&&*&#@OOO#&##@+#@&#&#@@&#+####++@##@@##@#@&&##@+##&# ",
" O+@#@O@@@#&#@@@@+@#+###+##&#&@@@+#&=#+@&&=&#@&@@######&=####+# ",
" OO+@XOXO@#*#O@@++#+###=#@#&%#OO@#=&==++&=;-##&@@##&###&==%+#++ ",
" #+@@OO+@O+##*###+#=##&=#@###%###&##+++++#&#=&@###+##&&==###### ",
" ##@+O@@@O+@&-*####%##&=@@@#=&##==##++@@++##=&#@#@@#&&**-#+==## ",
" ##+@@#@@++@###=#++++#+###+@#++@####@@O+##=&=&+O@@##@##&#+++### ",
" ##@+##@@@@@###&#+++@+@@##@@@@@@####++O@&&&&-#+@O@##+###&@@@@&# ",
" &&@+###++@O#&&+#%%#&&+@######@###+++@&#XX@###=#@@##$##@+##OO+# ",
" &#@+&###++O+&###%%##&############+++@&#O@++#==#+###=#@++#&OO## ",
"                                                                "
};
