/* XPM */
static char *tile0741664095403[] = {
/* columns rows colors chars-per-pixel */
"64 64 104 2 ",
"   c None",
".  c #000100",
"X  c #0D0703",
"o  c #030B00",
"O  c #0C0B00",
"+  c #100705",
"@  c #140C04",
"#  c #1A0E06",
"$  c #061100",
"%  c #0D1300",
"&  c #0E1B00",
"*  c #131300",
"=  c #1A1500",
"-  c #161E00",
";  c #1D1900",
":  c #251F00",
">  c #251309",
",  c #2A170A",
"<  c #2E190B",
"1  c #341C0C",
"2  c #381E0D",
"3  c #122200",
"4  c #1B2400",
"5  c #1A2C00",
"6  c #1D3400",
"7  c #1F3800",
"8  c #262000",
"9  c #2A2300",
"0  c #2F2B00",
"q  c #342C00",
"w  c #392F00",
"e  c #263500",
"r  c #223C00",
"t  c #3D3300",
"y  c #403600",
"u  c #453A00",
"i  c #493D00",
"p  c #244300",
"a  c #294700",
"s  c #264B00",
"d  c #2A4C00",
"f  c #2E5200",
"g  c #305500",
"h  c #325A00",
"j  c #395900",
"k  c #356000",
"l  c #396700",
"z  c #3C6A00",
"x  c #4E4100",
"c  c #554700",
"v  c #564800",
"b  c #5B4D00",
"n  c #5E5000",
"m  c #635400",
"M  c #6A5600",
"N  c #675800",
"B  c #6C5B00",
"V  c #715C00",
"C  c #417400",
"Z  c #467D00",
"A  c #746200",
"S  c #7A6500",
"D  c #7D6900",
"F  c #836D00",
"G  c #8B7400",
"H  c #8F7900",
"J  c #937B00",
"K  c #4A8300",
"L  c #4F8E00",
"P  c #508E00",
"I  c #539400",
"U  c #569900",
"Y  c #599E00",
"T  c #5CA300",
"R  c #5FA900",
"E  c #65B400",
"W  c #6ABC00",
"Q  c #6DC200",
"!  c #70C700",
"~  c #77D400",
"^  c #7FE100",
"/  c #9A8200",
"(  c #A18600",
")  c #A48A00",
"_  c #AA8E00",
"`  c #AD9100",
"'  c #B29500",
"]  c #B69900",
"[  c #BA9C00",
"{  c #BFA000",
"}  c #C2A300",
"|  c #CDAD00",
" . c #D5B300",
".. c #DAB700",
"X. c #DDBA00",
"o. c #E1BE00",
"O. c #E5C200",
"+. c #EAC600",
"@. c #EEC900",
"#. c #F2CD00",
"$. c #F5D000",
"%. c #FCD500",
"&. c #FFD900",
"*. c #FFE100",
/* pixels */
"                                                                                                                                ",
"                                                                                                                                ",
"                                                                                                                                ",
"                                                                                                                                ",
"                                                                                                                                ",
"                                                                                                                                ",
"                                                                                                                                ",
"                                                                                                                                ",
"                                                                                                                                ",
"                                                                                                                                ",
"                                                                                                                                ",
"                                            Y                                                                                   ",
"                                                                                                                                ",
"                                              Z d     u i i N N N m   r r     r r                                               ",
"                                              ^ l o i _ ..X.&.&.*.%.B % 7   h C r                                               ",
"                                              L 7 i _  .&.&.&.%.&.&.+.% I Y d K                                                 ",
"                              r     K r       r o J [ $.&.&.&.&.&.&.o.$ U E 7 6   r                                             ",
"                              r r   7 r r     7 o H [ #.&.&.&.&.&.&.#.D 7 W f U Z r                                             ",
"                                r z Y h 6 r r K 3 H [ #.&.&.&.%.&.&.&.O.% z 3 h s o . .                                         ",
"                              r   l E E Y h 6 l & H [ $.&.&.&.&.%.&.&.X.. - V M M S / / N                                       ",
"                          I 7         P C I T T 3 J [ $.&.&.&.&.&.&.&.O.O F } +.+.#.*.*.o.N                                     ",
"                                    . o o 6 p p 6 q / | %. .| | &.&.@.b G } @.&.&.&.&.&.*.J .                                   ",
"                                . x D D D ( ' ' 0 . J [ | [ [ [ | | ] * ] } &.&.%.&.&.%.*.H .                                   ",
"                                t ) ..#.@.&.&.*.| [ i ( ] t 0 w ' _ t G { @.&.&.&.&.&.&.&.H .                                   ",
"                              i )  .%.&.&.&.&.&.&.&.| u 9 @ + X 9 : * ' } &.&.%.&.%.&.&.&.J o Z E                               ",
"                              v [ o.&.&.%.&.&.&.&.&.n @ X # < 1 , > = ' } &.&.&.&.&.&.&.*.J .                                   ",
"                              v [ X.&.&.&.&.&.&.&.n @ < 1 1 2 2 2 2 , q [ | &.&.%.&.&.&.&.J $                                   ",
"                              v [ X.&.&.&.&.&.&.n @ @ 1 2 2 2 2 2 2 2 , q [ | %.&.&.&.&.` 5 7 p                                 ",
"                              c [ [ O.&.&.%.&.&.t X < 2 2 2 2 2 2 2 1 1 ; ] [ | &.+.[ } V s ! K 7 r                             ",
"                              O N ] [ O.&.%.%.&.t X 1 2 2 2 2 2 2 2 2 < ; ' ' ' [ [ F @ j P g                                   ",
"                      r r     p 5 * B [ [ { [ } 0 + # 1 2 2 2 2 2 2 2 < . : ; ; ; ; - l I p r                                   ",
"                          7 Z Q W W g B ' ` ` ' 8 + # 1 2 2 2 2 2 1 1 # 0 +.+.+.+.#.) O 3 r r r                                 ",
"                              a a a p - * * O = @ @ @ # # 1 1 2 1 # # : [ &.%.&.&.%.&./ O   r r                                 ",
"                                  r r 7 U z % F ] ' q = # @ # @ # # : ' %.&.&.&.&.&.&.&.J .     7 I                             ",
"                                  r r 7 U r S ' @.&.%.#.w ; ; ; = @ _ } %.&.&.%.&.&.&.*./ .                                     ",
"                                r a f a 7 - G { @.&.%.%.%.%.%.%.O.; ' } &.&.&.&.&.&.&.&./ .                                     ",
"                                7 I !   . A [ +.&.&.&.&.&.&.&.&.+.; ' [ #.&.&.&.&.&.&.&.J .                                     ",
"                              r     K   = F } #.&.&.&.%.%.&.&.%.+.; J [ } #.#.#.#.#.#.o.N .                                     ",
"                              r r     . A [ +.&.&.&.&.&.&.&.&.&.#.O e H J [ [ [ [ [ [ ` b                                       ",
"                            r r       . A [ +.&.&.&.%.&.&.%.&.%.] 4 U $ ; F G G G G G b                                         ",
"                            r           b _ X.%.&.%.&.&.&.&.&.#.* k r p r 7 5 . . . .                                           ",
"                                        . S [ ..%.&.&.&.&.&.#.X.* I p   f R T                                                   ",
"                                          v _ ] X.+.O.O.+.+.F A a 7 r r   6 r r                                                 ",
"                                            c _ [ [ [ [ ] A . $ ~     r a                                                       ",
"                                              v B B V B N O     U     r g ~                                                     ",
"                                                . . . . .       r                                                               ",
"                                                                r                                                               ",
"                                                                                                                                ",
"                                                                                                                                ",
"                                                                                                                                ",
"                                                                                                                                ",
"                                                                                                                                ",
"                                                                                                                                ",
"                                                                                                                                ",
"                                                                                                                                ",
"                                                                                                                                ",
"                                                                                                                                ",
"                                                                                                                                ",
"                                                                                                                                ",
"                                                                                                                                ",
"                                                                                                                                ",
"                                                                                                                                ",
"                                                                                                                                ",
"                                                                                                                                "
};
