/* XPM */
static char *tile0171664095529[] = {
/* columns rows colors chars-per-pixel */
"64 64 117 2 ",
"   c None",
".  c #040201",
"X  c #0E0702",
"o  c #0A0901",
"O  c #110600",
"+  c #150A04",
"@  c #1A0C05",
"#  c #200F05",
"$  c #241106",
"%  c #2A1407",
"&  c #2E1608",
"*  c #2F1808",
"=  c #311707",
"-  c #321807",
";  c #311709",
":  c #331908",
">  c #3C1C09",
",  c #253D00",
"<  c #411F09",
"1  c #44210B",
"2  c #4C240B",
"3  c #51270B",
"4  c #55290D",
"5  c #5D2D0E",
"6  c #572B11",
"7  c #5E2E10",
"8  c #642E0D",
"9  c #65300D",
"0  c #6A320D",
"q  c #73360E",
"w  c #77380F",
"e  c #7C3A0F",
"r  c #663211",
"t  c #6B3412",
"y  c #6F3A13",
"u  c #713613",
"i  c #733813",
"p  c #7C3D14",
"a  c #2A4600",
"s  c #3C5702",
"d  c #395D00",
"f  c #3D6300",
"g  c #524F08",
"h  c #595B08",
"j  c #61490D",
"k  c #6A570D",
"l  c #675A0C",
"z  c #754313",
"x  c #7B4015",
"c  c #7D4119",
"v  c #406001",
"b  c #426C00",
"n  c #4A6903",
"m  c #5F6009",
"M  c #467300",
"N  c #497600",
"B  c #4B7C00",
"V  c #606808",
"C  c #717507",
"Z  c #787009",
"A  c #707809",
"S  c #7F4A26",
"D  c #5A504B",
"F  c #6C5140",
"G  c #7F614D",
"H  c #716259",
"J  c #7B716A",
"K  c #813F14",
"L  c #854014",
"P  c #8C4313",
"I  c #81441B",
"U  c #934613",
"Y  c #984712",
"T  c #954816",
"R  c #9B4A15",
"E  c #A84C0F",
"W  c #A24D15",
"Q  c #AD5215",
"!  c #AB5318",
"~  c #B35515",
"^  c #B85715",
"/  c #BB5816",
"(  c #814F2E",
")  c #8A532E",
"_  c #81563A",
"`  c #9A5F37",
"'  c #AB5B25",
"]  c #A75D2A",
"[  c #A95E2B",
"{  c #A45F31",
"}  c #AD6331",
"|  c #A2643C",
" . c #BB6F3C",
".. c #805C46",
"X. c #85634E",
"o. c #9B7257",
"O. c #BB774A",
"+. c #4E8100",
"@. c #508400",
"#. c #568D00",
"$. c #579200",
"%. c #599100",
"&. c #5D9B00",
"*. c #6C8307",
"=. c #65A400",
"-. c #6BAB00",
";. c #9C8372",
":. c #93847B",
">. c #9C8A7E",
",. c #B28161",
"<. c #B0896F",
"1. c #9E9B99",
"2. c #A39286",
"3. c #AE9C90",
"4. c #B9A495",
"5. c #B6A9A1",
"6. c #CBC6C3",
/* pixels */
"                                                                                                                                ",
"                                                                                                                                ",
"                                                                                                                                ",
"                                                                                                                                ",
"                                                                                                                                ",
"                                                                                                                                ",
"                                                                                                                                ",
"                                                                                                                                ",
"                                                                                                                                ",
"                                                                                                                                ",
"                        X % % % % % % % & % # $ % % % % & % % % % % % % % % % % % % % % % $ $ % % % % % & X                     ",
"                        : P U R R R R R R U t P R R R R R R R R R R R R R R R R R R R R R i w W R R R R T &                     ",
"                        & p `  .~ ~ ^ ^ ^ R t W / ^ ~ ~ ~ ~ ~ ~ ~ ~ ~ ~ ~ ~ ~ ~ ~ ~ ~ ~ W i K ^ ~ ] ' ~ R %                     ",
"                        & S :.4.` t u u u r 1 0 u i W ~ ~ ~ ~ Q ! ~ ~ ~ ~ ~ ~ ~ ! ~ ~ ~ W i K ~ O.3.o.' R %                     ",
"                        = ( J 2.S X + + + + @ + + + Y ~ ~ ~ ~ ~ ~ ~ ~ ~ ! ~ ~ ~ ~ ! ~ ~ W i K ~ O.5.2.{ R %                     ",
"                        * K ) } 8 + # # @ @ @ @ @ + R ~ ~ ~ ~ ^ ~ ~ ~ ~ ~ ~ ~ ~ ^ ^ ~ ~ W i K / ~ { [ ~ R &                     ",
"                        % y w P 3 + # @ - < > > < < u K K K K K K K K K K K K K K K K K K r u K K K K K p $                     ",
"                        & i u u 1 + @ @ 6 i p i u u u u u r t u w u u u w u u t u u u u u u u u 9 0 u w i $                     ",
"                        - I U ! 7 @ @ @ u W W W W W W W K u W W W W W W W W W W W W W W W W W W K K W W T %                     ",
"                        & p T / 8 + @ + p ~ ~ ~ ~ ~ Q ~ K u Q ~ ~ ~ ~ ~ ~ ~ ~ ~ ~ ^ ~ ~ ~ ~ ~ ^ K K ^ ^ R &                     ",
"                        : p T ^ 9 @ @ + K / ^ ^ ^ ^ ~ ~ K r Q ~ ~ ~ ~ ~ ~ Q ~ ~ ~ ~ ~ ~ Q ~ ~ ~ K K ~ ~ R %                     ",
"                        & K T / 9 + @ @ > 2 3 < 2 1 W ~ K r Q ~ ~ ~ ~ ~ ^ ^ ^ ~ ~ ~ ~ ~ ^ ~ ~ ^ K Y ^ ^ R %                     ",
"                        $ t t p < @ @ # + @ @ @ @ @ 8 3 1 7 u w e u i i u < 4 u w w u w r < 5 w 0 t w w u #                     ",
"                        & K p p 2 @ @ @ @ @ @ @ @ @ t % @ u p w p p u t t + % p p p i K 6 O 1 e K e 0 t K $                     ",
"                        : I U Q 8 + # + 9 K K K Y K E Y K E ~ ~ ! W K t W K Y ~ ~ ~ Q Q q + 5 ~ ! R t P R %                     ",
"                        * p T ^ 8 + # + e ^ / / / ^ ~ 4 < W < < > > : 0 W < 4 ^ K > : 0 w + % > > t t U R %                     ",
"                        & K T ^ 9 + @ + e ^ ~ ~ ~ ~ ~ = @ R $ $ K K % < K # < K % < Y W w + 3 W 3 # 1 T R &                     ",
"                        * c T ^ 9 + # + w ~ ~ ~ ~ ~ ~ : # R % $ Q W # = E # 2 K + # 5 / w + 5 / 8 + 1 T R %                     ",
"                        $ r r t < @ @ @ 3 t t t 9 t t % @ 5 $ # t 8 # $ 8 @ % 0 1 @ # 2 3 + < u 1 + 1 r t #                     ",
"                        - L ..X.3 + @ @ 8 K K r e K K % # w $ $ K u # % q # = K K 6 + 1 7 + 2 K 2 + 6 K K %                     ",
"                        = _ 1.6.H # # # e ~ T r R Q ~ > $ Y ; & W W $ > K $ < K % % ; e e @ 8 ^ r # D o.R %                     ",
"                        & K G o.! W W W Q Q T r R ~ Q W W Q W W Q Q Q E / W E ^ W R u p Q W Q ~ W <.O.E R %                     ",
"                        * I c c K I K I K I L t p p K I p K K c K K K K K K K K I K p t K p p c I I I p L *                     ",
"                        % i i i q t u i u i i 7 r i u i i y i q u u u u t u u u i i t 5 i i i i u u y i p %                     ",
"                        . . . . . . . . . . . . . . . . . . + + + + + + X . . . . . . . . . . . . . . . . .                     ",
"                                                          . R Q p i i p r .                                                     ",
"                                                          . W ~ I p p p r .                                                     ",
"                                                          . W ~ K p p i r .                                                     ",
"                                                          . W Q p p p S r .                                                     ",
"                                                          . W ~ I p p p r .                                                     ",
"                                                          . W Q p p p p r .                                                     ",
"                                                          . W Q K p c p r .                                                     ",
"                                                          . W ~ c p p p r .                                                     ",
"                                                          . W ~ L p p c r .                                                     ",
"                                                          . W Q p p p p r .                                                     ",
"                                                          o W Q c x K K r .                                                     ",
"                                                          o W ~ K x l k y ,                                                     ",
"                                                          . R ~ p z +.B h a                                                     ",
"                                                  +.&.    o W Q p p b b g .                                                     ",
"                                                    #.=.=.v ! Q p V s j r .                                                     ",
"                                                      =.  -.Z Q A b n p z f   N b                                               ",
"                                                      $.+.=.&.A =.f +.m *.#.N b b                                               ",
"                                                B       b N =.+.N d +.&.$.$.f f +.B +.B                                         ",
"                                              f B B =.@.M d b B d d b =.+.@.f B &.#.f b                                         ",
"                                                    M %.+.f M B d M M b f B N @.                                                ",
"                                                        B   B       B N N                                                       ",
"                                                                                                                                ",
"                                                                                                                                ",
"                                                                                                                                ",
"                                                                                                                                ",
"                                                                                                                                ",
"                                                                                                                                ",
"                                                                                                                                ",
"                                                                                                                                "
};
