/* XPM */
static char *tile000_copy1664094954[] = {
/* columns rows colors chars-per-pixel */
"64 64 13 1 ",
"  c None",
". c black",
"X c #212722",
"o c #323C33",
"O c #2D4E29",
"+ c #4A5D6C",
"@ c #AC3232",
"# c #D87D7D",
"$ c #6DE579",
"% c #7E8387",
"& c #B6B6B6",
"* c #93F69D",
"= c white",
/* pixels */
"                                                                ",
"                                                                ",
"                                                                ",
"                                                                ",
"                                                                ",
"                                                                ",
"                                                                ",
"                                                                ",
"                                                                ",
"                                                                ",
"                                                                ",
"                                                                ",
"                                                                ",
"                                                                ",
"                 =========================                      ",
"                ==.......................==                     ",
"                =.&&&&&&.%%%%%%%%%%%%%%%+.=                     ",
"                =.&&&&&&.%%%%%%%%%%%%%%%+.=                     ",
"                =.&&&&&&.%%............%+.=                     ",
"                =.&&&&&&.%%.XXXXXXXXXX.%+.=                     ",
"                =.&&..&&.%%.XooooooooX.%+.=                     ",
"                =.&.&&.%.%%.Xoo**o**oX.%+.=                     ",
"                =.&.&%.%.%%.Xoo$$o$$oX.%+.=                     ",
"                =.&.%%.%.%%.Xoo**o**oX.%+.=                     ",
"                =.&.++.%.%%.XooooooooX.%+.=                     ",
"                =.&&..%%.%%.Xooo$*$ooX.%+.=                     ",
"                =.&&%%%&.%%.XXXXXXXXXX.%+.=                     ",
"                =.&&&&&&.%%............%+.=                     ",
"                =.&&&&&&.%%%%%%%%%%%%%%++.=                     ",
"                =.&&&&&&.++++++++++++++++.=                     ",
"                ==.......................==                     ",
"                 ====.#@.&&%%%%...+.======                      ",
"                    =.#@..&%%..&.O..=                           ",
"                    =...&%...&&%.O..=                           ",
"                    =.&.%+.&&&%+.O..=                           ",
"                    =.&.++.&&&%+.O..=                           ",
"                    =.&%.....&&%.O..=                           ",
"                    =.&%.%&%%..&.O..=                           ",
"                    =.&%.&&%%%%...+.=                           ",
"                    =.&%.&&%%%%+++%.=                           ",
"                    =.&%.&&%%%%%%%%.=                           ",
"                    ==...&&%%%%%%%%.=                           ",
"                     ===.&&%.%%%%%%.=                           ",
"                       =.&&%.++++%%.=                           ",
"                       =.&&%.....&%.=                           ",
"                       =.&&%.===.&%.=                           ",
"                       =.&&%.= =.&+.=                           ",
"                       =.&&%.= =.++.=                           ",
"                       =.....= =....=                           ",
"                       ======= ======                           ",
"                                                                ",
"                                                                ",
"                                                                ",
"                                                                ",
"                                                                ",
"                                                                ",
"                                                                ",
"                                                                ",
"                                                                ",
"                                                                ",
"                                                                ",
"                                                                ",
"                                                                ",
"                                                                "
};
