/* XPM */
static char *tile0681664095369[] = {
/* columns rows colors chars-per-pixel */
"64 64 159 2 ",
"   c None",
".  c #010101",
"X  c #0A0301",
"o  c #070808",
"O  c #0C0C0C",
"+  c #130000",
"@  c #1B0100",
"#  c #1B0800",
"$  c #130D0A",
"%  c #15100C",
"&  c #1D140E",
"*  c #141414",
"=  c #1D1612",
"-  c #1B1B1B",
";  c #230000",
":  c #2B0000",
">  c #240D00",
",  c #290F00",
"<  c #320000",
"1  c #3A0000",
"2  c #291000",
"3  c #301200",
"4  c #3A1700",
"5  c #3E1800",
"6  c #201610",
"7  c #2D231D",
"8  c #39271C",
"9  c #3D2A1F",
"0  c #232323",
"q  c #2F2A26",
"w  c #2A2A2A",
"e  c #2C2724",
"r  c #3B2E26",
"t  c #3D2626",
"y  c #3D3028",
"u  c #323232",
"i  c #373839",
"p  c gray23",
"a  c #450000",
"s  c #4C0000",
"d  c #530000",
"f  c #580000",
"g  c #640000",
"h  c #6A0000",
"j  c #740000",
"k  c #7E0000",
"l  c #452F22",
"z  c #4A2A2A",
"x  c #4D3526",
"c  c #463123",
"v  c #543A2A",
"b  c #583E2C",
"n  c #453F3B",
"m  c #613B22",
"M  c #5D402F",
"N  c #5E4430",
"B  c #5E4B3F",
"V  c #664733",
"C  c #674833",
"Z  c #6A4A35",
"A  c #684F3F",
"S  c #754A35",
"D  c #724531",
"F  c #75523B",
"G  c #7A543C",
"H  c #7F583F",
"J  c #3E4041",
"K  c #434343",
"L  c #4D4D4D",
"P  c #555555",
"I  c #5B5B5B",
"U  c #675042",
"Y  c #6A5244",
"T  c #6E5749",
"R  c #765447",
"E  c #775E4E",
"W  c #7A5B4D",
"Q  c #775F50",
"!  c #646464",
"~  c #6B6B6B",
"^  c #737373",
"/  c #7C7C7C",
"(  c #820000",
")  c #890000",
"_  c #950000",
"`  c #9B0000",
"'  c #A20000",
"]  c #AD0000",
"[  c #B40000",
"{  c #BB0000",
"}  c #C40000",
"|  c #CC0000",
" . c #D30000",
".. c #DC0000",
"X. c #E30000",
"o. c #ED0000",
"O. c #815E50",
"+. c #8D6246",
"@. c #916548",
"#. c #976A4C",
"$. c #9D6D4E",
"%. c #946E56",
"&. c #9F6E50",
"*. c #A16F51",
"=. c #A27252",
"-. c #AB7656",
";. c #AE7857",
":. c #B57F5A",
">. c #8F7260",
",. c #997D69",
"<. c #BD835E",
"1. c #A5846D",
"2. c #B38C74",
"3. c #C68B63",
"4. c #CC8D66",
"5. c #CF9167",
"6. c #D8976C",
"7. c #DD9A6E",
"8. c #D6956A",
"9. c #E39D71",
"0. c #ECA476",
"q. c #ECA87C",
"w. c #E4A378",
"e. c #F0A678",
"r. c #F4AB7A",
"t. c #FAAE7C",
"y. c #FFB37F",
"u. c #838383",
"i. c #8E8E8E",
"p. c #929292",
"a. c #9E9E9E",
"s. c #A3A4A4",
"d. c #A5A8A8",
"f. c #ADADAD",
"g. c #B5B5B5",
"h. c #BCBCBC",
"j. c #EBA980",
"k. c #E2AE8E",
"l. c #F5AE81",
"z. c #FFB481",
"x. c #FFBA85",
"c. c #FFB98B",
"v. c #F2B48C",
"b. c #E7B698",
"n. c #E8B799",
"m. c #EBBB9D",
"M. c #FFBF97",
"N. c #F0BD9E",
"B. c #F2BFA1",
"V. c #FFC395",
"C. c #FFC499",
"Z. c #FFCA9E",
"A. c #FEC6A3",
"S. c #FFCAA5",
"D. c #FFCBA9",
"F. c #FFD2AE",
"G. c gray77",
"H. c #CACACA",
"J. c #D0D0D0",
/* pixels */
"                                                                                                                                ",
"                                                                                                                                ",
"                                                  . . .                                                                         ",
"                                                    . . . . -                                                                   ",
"                                                        . X s.u 0 -                                                             ",
"                                                            O d.a.g.w 0 - *                                                     ",
"                                                              . % s.a.h.i./ - - -                                               ",
"                                                                  . * d.H.g.i.i.! - 0 -               . X                       ",
"                                                                      - a.p.H.h.p.i.u.! 0 0 -       X > 2 X                     ",
"                                                                        . 0 a.s.H.f.i.i.u.u.P 0 * X 2 5 2 X                     ",
"                                                                            . w d.J.H.f.i./ u.i.J # 4 2 X                       ",
"                                                                                0 p.s.H.f.u.u.~ q 2 4 > X                       ",
"                                    . @ ; ; . .                               . . @ t d.H.h./ 0 > 4 # 2 #                       ",
"              7 A C Z v           . + d j j s X .                           . X a j f z / ^ M > 4 > . 2 m C C U 7               ",
"              r S.x.x.=.6 b       . 1 j ( k ( d X                           X s ( k ( g + . # 4 > . c 6 =.x.z.S.y               ",
"              r S.c.y.4.:.#..   . @ d k k k ( ( @ .     . C G E Q Y .     . @ ( ( ( ( h @ X > > X . $.<.5.y.c.S.y               ",
"              r D.A.c.y.x.+..   . < j ( k k k ( d X   . F t.x.V.C.S.Q .   X s k k k h ; X 2 , . . . @.x.y.c.A.D.r               ",
"              y F.D.S.C.Z.%..   . < j ( ( k ( ( ( @ . . 9.y.y.y.z.S.m.. . + ) ( ( ( d . > 2 . .   . %.Z.C.D.D.F.y               ",
"            . % Y U U Y Y r .   . < j ( ( ( a : : G @.$ 9.z.y.z.M.D.b.$ >.O.; : a ) j < X X .     . r Y U U U Y % .             ",
"            % K J J J K i 0 *     < j ( s ; S $.#.e.x.;.Z r.y.z.D.m.R 1.V.v.,.1.W ; s j a @ .     * 0 i J J J K K %             ",
"            - / ^ ^ ^ ^ ~ K -     < k a S =.0.x.x.x.z.y.% v e.M.D.n.= A.y.x.V.V.m.1.R a ( 1 .   . * K ~ ^ ^ ^ ^ / -             ",
"            * ^ ^ ^ ^ ^ ! K *     + @ D 0.x.y.x.H x 7.z.:.$ w.D.B.B 2.c.w.v F x.c.Z.m.R @ + .   . * K ! ^ ^ ~ ^ ^ *             ",
"          * P ^ ^ ^ ^ ^ ! K * .   . N 0.y.y.z.H o . 5.0.0.-.9.j.w.*.j.0.8.. o G z.z.C.k.v .     . - K ~ ^ ^ ^ ^ ^ P *           ",
"          * ^ ^ ^ ~ ^ ^ ! K *     M 7.x.y.x.R . . . <.v 8 9 8 8 8 9 8 v <.. . . G x.z.l.3.V     . * p ! ^ ^ ^ ^ ^ ^ *           ",
"          * ^ ^ ^ ^ ^ ^ ~ K * . . F t.z.z.G . +.3.;.c . . . . . . . . . c ;.3.@.. F t.9.$.& .     * K ! ^ ^ ^ ^ ^ ^ *           ",
"          * ^ ~ I I ^ ^ ! p * . . $ #.t.z.6.3.r.e.b X . . . . . . . . . . v e.r.3.4.9.&.$ . 0 0 . * K ! ^ ^ I P ~ ^ *           ",
"          O J L i P ! ^ ! K * P P . O #.9.t.z.0.v . . . ! ^ ^ ^ ^ ^ ~ X . . x 9.9.9.$.$ . . u P - * K ! ^ ! P p L p O           ",
"          . - P - ^ ~ ~ L * P h.I . . $ = *.9.v . . . ! i.i.p.p.i.i.i.! . . . x 7.*.$ . . u u./ I 6 - L ~ ~ ~ 0 P 0 .           ",
"        * ! ! ^ ! ^ ^ ! K * ! G.p.p . . . $ 6 X o . ! i.i.i.i.i.i.i.i.i.~ o . . = $ . . u u.p./ ! 0 * J ! ^ ^ ! ~ ! ! *         ",
"        * ^ ~ ^ ^ ^ ~ K - L h.s.p.u.u.i . . . . ! u.i.p.i.i.i.p.i.i.i.i.i./ ! o o . w u.u.i.i.i./ P - - L ! ^ ^ ^ ^ ~ *         ",
"        * ^ ^ ^ ^ ^ ~ K * P H.a.i.i.i.u.u./ u.u.u.p.i.i.i.u.u.u.u.i.u.p.i.p.i./ u./ u.p.p.i.i.p./ I 0 * K ~ ^ ^ ^ ^ ^ *         ",
"        O ^ ^ ^ ^ ^ ! K * I G.a.i.i.i.i.i.i.i.i.i.i.i.u.u.- O O O O - u.u.i.i.i.i.i.i.i.i.i.i.i.u.I 0 - J ! ^ ^ ^ ^ ^ *         ",
"        * ^ ^ ^ ^ ~ K - L G.s.i.i.i.i.i.i.i.i.i.i.u.u.- o . + + + X . O - u.u.i.i.i.i.i.i.i.i.p.i./ I - - L ~ ^ ^ ^ ^ O         ",
"        $ ^ ^ ~ ^ ~ K * L G.a.i.i.i.i.i.i.i.i.i.! * o . + @ | ....| @ + . X 0 u.i.i.i.i.i.i.i.i.i./ I - - J ~ ^ ^ ~ ^ *         ",
"        * ^ ^ ^ ^ ~ L * L H.a.i.i.i.p.i.i.i.i.i.P O . + [ |  .| | X...} @ . . 0 i.i.i.i.i.i.i.i.i./ I 0 - J ~ ^ ^ ^ ^ *         ",
"        * ^ ^ ^ ^ ~ K * L H.a.i.i.i.i.i.i.i.p.! * . @ ' { { { [ [ [ | ..{ @ . 0 i.i.i.i.i.i.i.i.i./ I - - J ~ ^ ^ ^ ^ O         ",
"        * ! ^ ^ ^ ! K * P G.s.i.i.i.i.p.i.i.u.P O . _ [ { [ { { { [ [ [  .] . - 1.i.i.i.i.i.i.i.i./ I 0 * J ~ ^ ^ ^ ! *         ",
"          * ^ ^ ^ ~ K * L H.a.i.i.i.i.i.i./ P * . @ ` { [ [ [ { { { { { | ] ; . 0 p.i.i.i.i.i.i.p./ I - - J ~ ^ ^ ^ *           ",
"          * ^ ^ ^ ~ L * L H.a.i.i.i.i.i.i.^ I * . _ } { { ] ] ] [ { { { } o.{ . w p.i.i.i.p.i.i.i./ I - - J ^ ^ ^ ^ *           ",
"          * I ^ ^ ~ K * L H.a.i.i.i.i.i.i./ P * . _ { { { { { [ [ ] ] [ } o.{ . 0 p.i.i.i.i.i.i.i./ I 0 - J ~ ^ ^ I -           ",
"            * ^ ^ ~ K * L H.a.i.i.i.i.i.i./ P * . _ { { { { { { { { ] ] { X.{ . 0 p.i.i.p.i.i.i.i./ ! - - K ~ ^ ^ *             ",
"            * I ^ ~ K - L H.s.i.i.i.i.i.p.^ P * . _ { [ ] [ { { { { { { [ | [ . 0 p.i.p.i.i.i.i.i./ I - - K ~ ^ I *             ",
"              * I ~ K * P H.a.i.i.p.i.i.i./ I * . _ } { [ ] [ [ [ { { { } X.] . 0 p.i.i.i.i.i.i.i./ ! - * K ~ P *               ",
"                * L I 0 p a.f.p.i.i.i.i.i.^ I * . _ { { { [ [ ] ] { { { } o.{ . 0 p.i.i.i.i.i.i.i.^ K - w P P *                 ",
"                  - p u * P H.s.i.i.i.i.p./ P * . _ { { { { { { [ [ [ { { o.{ . 0 p.i.i.i.i.i.p./ I - - u J -                   ",
"                    . O O P H.a.i.i.i.i.i./ ! u . d ' [ [ [ { { { [ [ [ }  .h O P p.i.i.i.i.i.u.^ K * O O .                     ",
"                        . p p.g.p.i.i.i.i.p.^ I * . ` [ [ [ [ [ { { { } X.] . 0 p.i.i.i.i.i.i./ I 0 . .                         ",
"                            i i.a.i.i.i.i.i./ P * . ` } { [ [ [ [ [ [ } o.} . 0 p.i.i.i.p.i.p.u.L *                             ",
"                              I h.p.i.i.i.i./ P * . _ { { { { { [ [ [ { X.{ . 0 p.i.i.i.i.i.u.^ w                               ",
"                              p p.g.p.i.i.p.^ P $ . ` { [ { { { { { { { X.} . - p.i.i.i.i.i.~ K *                               ",
"                                i p.g.a.p.i.u.~ p o 1 ' [ [ [ { { { { .. .s * ! i.i.p.p.i.~ p *                                 ",
"                                  u p.J.g.p.i.^ P * . ' [ [ [ ] { [ } o.} . - p.i.i.u./ ^ p *                                   ",
"                                    i K a.g.p.^ P * . ` { { { [ [ [ [ ..{ . - p.i./ ~ I K O                                     ",
"                                        w a.h./ P O . ' } { { { { [ { X.} . - / ~ I K - *                                       ",
"                                          u i I I O . < ' [ [ { [ {  .| 1 . * I K * *                                           ",
"                                              - - u O . ` [ ] [ [ {  .{ . O u * *                                               ",
"                                                  * . . : ' [ [ { | [ : . X *                                                   ",
"                                                      . . | .. . .X.| . .                                                       ",
"                                                      . . : ..X.o.| : . .                                                       ",
"                                                        . . ; ; ; ; . .                                                         ",
"                                                          . . . . . .                                                           ",
"                                                                                                                                ",
"                                                                                                                                ",
"                                                                                                                                "
};
