/* XPM */
static char *tile0701664095369[] = {
/* columns rows colors chars-per-pixel */
"64 64 169 2 ",
"   c None",
".  c #010101",
"X  c #0B0301",
"o  c #070D0D",
"O  c #0B0B0B",
"+  c #0E0A07",
"@  c #130100",
"#  c #1C0000",
"$  c #120800",
"%  c #1D0A00",
"&  c #120D0A",
"*  c #15100D",
"=  c #19110C",
"-  c #0F1212",
";  c #131414",
":  c #1C1612",
">  c #1B1B1B",
",  c #240100",
"<  c #2B0000",
"1  c #250E00",
"2  c #290F00",
"3  c #340000",
"4  c #3B0000",
"5  c #271000",
"6  c #2F1200",
"7  c #3B1700",
"8  c #3D1800",
"9  c #331300",
"0  c #241A14",
"q  c #2B1E15",
"w  c #221E1C",
"e  c #211616",
"r  c #311E1E",
"t  c #2D231D",
"y  c #33231A",
"u  c #3E2B1F",
"i  c #39271C",
"p  c #1F1F20",
"a  c #222323",
"s  c #2C2C2C",
"d  c #302620",
"f  c #3D2E26",
"g  c #322E2C",
"h  c #3C2F28",
"j  c #3D3028",
"k  c #2F3333",
"l  c #333333",
"z  c #3C3C3C",
"x  c #440000",
"c  c #4B0000",
"v  c #510000",
"b  c #5C0000",
"n  c #620000",
"m  c #6F0000",
"M  c #750000",
"N  c #7D0000",
"B  c #56321A",
"V  c #412D20",
"C  c #473224",
"Z  c #4C3426",
"A  c #4F3728",
"S  c #48382E",
"D  c #523929",
"F  c #5B3F2D",
"G  c #503E33",
"H  c #683F2E",
"J  c #623C2B",
"K  c #5D412E",
"L  c #534136",
"P  c #634532",
"I  c #6B4B36",
"U  c #6A4F38",
"Y  c #794C36",
"T  c #75523B",
"R  c #7B563D",
"E  c #7F593F",
"W  c #3D3F40",
"Q  c #434343",
"!  c #4C4C4C",
"~  c #4C4845",
"^  c #545454",
"/  c #5C5C5C",
"(  c #634E42",
")  c #6E574A",
"_  c #75594A",
"`  c #7D6353",
"'  c #646464",
"]  c #6A6A6A",
"[  c #737373",
"{  c #7B7B7B",
"}  c #820000",
"|  c #9B0000",
" . c #A30000",
".. c #AD0000",
"X. c #B40000",
"o. c #BB0000",
"O. c #C50000",
"+. c #CB0000",
"@. c #D30000",
"#. c #DC0000",
"$. c #E40000",
"%. c #EA0000",
"&. c #F10000",
"*. c #825A41",
"=. c #885E44",
"-. c #8D6247",
";. c #80614E",
":. c #926649",
">. c #95684B",
",. c #9C6C4E",
"<. c #816453",
"1. c #866A58",
"2. c #9F6E50",
"3. c #946E56",
"4. c #A37252",
"5. c #AF7957",
"6. c #AF7958",
"7. c #AA7755",
"8. c #B17B59",
"9. c #937562",
"0. c #A07D67",
"q. c #BA825C",
"w. c #AA856F",
"e. c #BF8560",
"r. c #C58A62",
"t. c #C58962",
"y. c #CC9167",
"u. c #D4946A",
"i. c #DC986E",
"p. c #D9976C",
"a. c #DF9A70",
"s. c #E39D72",
"d. c #E5A173",
"f. c #EBA375",
"g. c #E5A57D",
"h. c #EFA778",
"j. c #F1A778",
"k. c #F5AB7A",
"l. c #FAAF7D",
"z. c #FFB27F",
"x. c #848484",
"c. c #8E8E8E",
"v. c #929292",
"b. c #9D9D9D",
"n. c #A3A3A3",
"m. c #ACACAC",
"M. c #B3B3B3",
"N. c #B9B9B9",
"B. c #ECAC84",
"V. c #FFB582",
"C. c #FFBA84",
"Z. c #FFB789",
"A. c #FEBB8D",
"S. c #F2B48C",
"D. c #EAB798",
"F. c #F5B790",
"G. c #FFBE95",
"H. c #FFC295",
"J. c #FFC39A",
"K. c #FFC89A",
"L. c #F4C1A0",
"P. c #FDC5A3",
"I. c #FFCAA4",
"U. c #FFCCAA",
"Y. c #FFD2AE",
"T. c #FFD2B1",
"R. c #C5C5C5",
"E. c gray79",
"W. c gray82",
/* pixels */
"                                                                                                                                ",
"                                                        . X M.a ; ;                                                             ",
"                                                            ; M.n.m.> ; O -                                                     ",
"                                                              X ; M.n.N.x.] ; ; ;                                               ",
"                                                                  . > N.R.M.x.x.' ; ; O               . X                       ",
"                                                                      a M.b.E.N.c.x.x./ ; > ;       X % 5 X                     ",
"                                                                        . a M.M.R.m.c.x.x.x.^ > O . 5 8 5 X                     ",
"                                                                            . s M.E.E.m.x.{ x.x.W % 8 6 X                       ",
"                                                                                l n.m.E.m.x.x.[ g 1 7 1 X                       ",
"                                    . X # # .                                     . z M.E.M.{ s 1 7 1 1 $                       ",
"                                  . @ v M m 4 X                                       z c.x.~ 1 7 1 . 9 B D D G                 ",
"                                  . 4 M N } } x X                                       . . $ 8 2 . i * 4.C.V.I.j               ",
"                                . X v M N } } } # .                                     . X 5 1 X . ,.4.t.V.C.P.j               ",
"                                . 3 M } N N N } x X                                   . . 5 5 X . . :.C.z.Z.P.I.j               ",
"                                . 3 M } } N } N } #                                 . . 1 5 X .   . 3.K.H.I.Y.Y.j               ",
"                                . 3 M N } N } } v . .   ) _ X                 . X < < , $ X .     . S 1.` <.<.<.= .             ",
"              d ` E E P .       . 3 M } N } N } @ P *.<.F.U.1.O .           . @ v M M n # .       ; > s l l l k z O             ",
"              j I.V.C.4.q P     . 3 M } N N } c Y h.C.H.V.P.P.: <.` . = ` . . . c } } M 3 .     . ; Q ] { [ [ { [ >             ",
"              h P.A.z.u.r.>..   . @ v N } } } # y.V.z.z.G.P.L.0 L.A.:.9.S.9.9.9._ x } N b # .   . > Q ' [ [ [ ] [ ;             ",
"              h U.P.A.V.C.-..     . 3 M } c < . C d.z.z.A.I.L.w D.V.H.H.V.G.K.T.D.J c } M 4 .   . ; Q ' [ [ [ [ [ ^ ;           ",
"              j Y.U.I.K.I.3..     . @ v } , U 7.= V f.z.z.P.P.: S.h.P F T V.C.A.V.t.H < x 3 .   . ; Q ' [ [ [ [ [ [ ;           ",
"            . & L L G G L t .     . . X # Y h.C.t.= f s.J.P.( w.z.f.. . X Z R V.j.a.>.. e r .   . ; Q ] [ [ [ [ [ [ ;           ",
"            ; ! ! ! ! ! Q s ;     . . I 8.h.C.V.C.r.& u.P.B.4.g.a.F =.. = -.. I s.5.q . a ^ > . . > W ' [ [ / / [ [ ;           ",
"            > [ [ [ [ [ ] Q ; .   q.q.f.C.*.f V u.j.6.i.g.Z u i y . C 4.r.k.q.t.8.0 . a { { ^ > . ; Q ' [ ' ^ z ^ Q O           ",
"            ; [ [ [ [ [ ' Q ; .   V.V.V.V.D . . t.K y y y . . . . . . A d.s.f.s.2.. . l v.c.{ / ! w > ! ] ] ] > ^ > .           ",
"          ; ' [ [ [ ] [ ' Q >     >.V.z.V.D . . 5.y . . . . . . . . . . t q D a.2.. . l v.c.c.{ / a ; Q ] [ [ ' ] / / ;         ",
"          > [ ] [ [ [ [ ] W ; . T h.z.V._ X :.e.C X . . . ' [ [ [ [ ] . . . . q = a [ { c.c.v.{ / a ; l ! ] [ [ [ [ [ ;         ",
"          ; [ [ [ [ [ [ ' W ; D i.V.V.E . -.l.d.t . . ' { c.v.c.c.c.c.' ; ' . . p x.v.c.c.c.c.{ ] ^ p . l ] [ [ [ [ [ ;         ",
"          ; [ ] ^ / [ [ ' Q ; X E k.z.d.i.k.f.A . . ' c.c.c.c.v.c.c.c.c.{ c.{ { x.c.c.c.c.c.c.c.c.{ ^ ; k ' [ [ [ [ [ O         ",
"          O z ! l ^ / [ ' Q > . X *.i.u.j.V.K . . . [ v.c.c.c.c.c.v.x.c.v.c.c.c.v.c.c.c.c.c.c.c.c.{ / > > ~ ] [ [ [ [ ;         ",
"          . a ^ a [ [ ] Q a [ ' . O * + -.i.u . . ' c.c.c.c.x.x.x.{ a x.x.c.x.v.c.c.c.c.v.c.c.c.c.{ / a > Q ] [ [ ] [ ;         ",
"        ; ] ] [ ] [ [ ' z > ] { . . . . + + O X ] c.c.c.c.x.> O O O . O a [ a x.c.c.c.c.c.c.c.c.c.c.{ ^ > l ] [ [ [ [ ;         ",
"        - [ [ [ [ [ ] Q > ! R.N.v.W O O O O ' x.c.v.c.x.x.; @ @ @ @ @ @ X O . a c.c.c.c.c.c.c.c.c.c.{ / > l ] [ [ [ [ ;         ",
"        - [ [ [ [ [ ] Q a > [ N.c.c.x.x.x.x.c.c.c.c.c.> . X O.$.#.#.#.#.o.# @ . s v.c.c.c.c.c.c.c.c.{ / > l ] [ [ ] ] ;         ",
"        - [ ] [ [ [ ' Q ; ^ R.b.c.c.c.v.c.c.c.c.c.x.{ ; . # +.@.+.+.X.+.@.$. .. p x.c.c.c.c.c.c.c.c.{ ' > k ] [ [ [ >           ",
"        & [ [ [ [ ] Q s > ! N.b.c.c.c.c.c.c.c.c.v./ ; . # o.@.o.o.X.X.X.X.@. .@ . s x.c.c.c.c.c.c.c.c.{ / ; ^ [ [ [ ;           ",
"        ; [ [ [ [ ] Q s s > [ M.c.c.c.c.c.c.c.c.x.! O #  .o.o.o.o.o.X.o.o.+.%.o.@ . g v.c.c.c.c.c.c.c.{ / ; ! [ [ ' ;           ",
"        * [ [ [ [ ' Q s ; ^ R.b.c.c.c.c.c.c.c.v.' - . N X.o.o.X.o.o.o.o.o.o.+.%.... g v.c.c.v.c.c.c.c.{ / p ^ [ [ >             ",
"        ; [ [ [ [ ] Q s ; / E.b.c.c.c.c.c.c.c.c./ & . , ..X.X.X.X...X...X.o.O.$.... s v.c.c.c.c.c.c.c.{ ^ Q ' [ / ;             ",
"        - ^ [ [ [ ] Q s > Q m.m.v.c.c.c.c.c.v.[ ^ - . | o.o.X.o.X.X.X.X.....o.@.o.# a { v.c.c.c.c.c.v.{ / a ^ ' >               ",
"          ; [ [ [ ] Q s s ; / E.b.c.c.c.c.c.v.[ ^ ; .  .o.o.o.o.o.o.o.o.o.o.o.@.$. .. l v.c.c.c.c.v.x.] Q ^ ^ >                 ",
"          ; [ [ [ ] Q s s - / E.b.c.c.c.c.c.v.[ ^ O . m X.o.o.X.X.o.o.o.o.o.o.O.&. .. s v.c.c.c.c.v.{ / > z >                   ",
"          ; ^ [ [ ] W s s ; / E.b.c.c.c.c.c.c.{ ' s . .  .o.X.....X.X.X.o.o.o.O.&. .o ^ v.c.c.c.c.c.x.] > .                     ",
"            ; { [ ' Q s s > Q n.m.v.c.c.c.c.c.v.[ ^ - .  .o.o.X.X.X.......X.X.+.%.| > [ v.c.c.c.c.c.x.[ a                       ",
"            ; ^ { ] Q s s s - / R.b.c.c.c.c.c.v.[ ^ & .  .O.o.o.o.o.o.X.X.X.X.@.$.| . k v.c.c.c.c.v.[ Q ;                       ",
"              - ! ] Q s s s ; ' R.b.c.v.c.c.c.c.[ / g o n X.o.X.X.o.o.o.o.o.o.+.%. .. l v.c.c.c.v.x.! ;                         ",
"                ; ~ / l s s ; ' E.n.v.c.c.c.c.c.x.] ^ O . b ..X.X...X.X.X.o.X.O.%. .. l v.c.c.v.v.9.s                           ",
"                  > l s s s > z b.R.m.v.c.c.c.c.c.{ ' k . . ..X.o.o.X.X.X.X.X.o.@.+.c k v.c.v.x.x.[ a                           ",
"                      O ; > l & s n.R.b.x.v.c.c.c.c.[ ^ o . ..o.o.o.o.o.O.o.o.o.#.+.c k v.c.v.[ / W -                           ",
"                          O ; O . [ R.b.c.c.c.c.c.c.x.' g O v X.X.X.o.o.o.o.o.O.&. .. l v.c.{ ^ a -                             ",
"                                    ' x.m.v.c.c.c.c.c.] ^ X . ..o.X.X.X...X.X.O.$.| . s x.[ ' g .                               ",
"                                      z c.m.v.c.c.c.c.[ ^ l . c X.X.X.X...X.X.X.+.@.b o z ' W ;                                 ",
"                                      . { W.m.v.c.x.x.x.' ^ k . x X.o.X.X.o.o.o.O.o.4 - s ; ;                                   ",
"                                        l Q b.R.m.N.m.c.x.' ^ X X o.o.o.o.o.o.o.#.| . p !                                       ",
"                                              ! m./ m.m.v.[ ! o . x X.X.X.X.X.o..., . O p                                       ",
"                                                l O s M.m.[ ! X . X ..X.X.X.X.O.+.M . .                                         ",
"                                                      s s > ; X l X < 4 o.#.@.#.o., . .                                         ",
"                                                                ; . . # $.%.%.$. .. .                                           ",
"                                                                    . . c O.< < # .                                             ",
"                                                                      . . # . . . .                                             ",
"                                                                          .                                                     ",
"                                                                                                                                ",
"                                                                                                                                ",
"                                                                                                                                "
};
