/* XPM */
static char *tile0691664095368[] = {
/* columns rows colors chars-per-pixel */
"64 64 169 2 ",
"   c None",
".  c #010101",
"X  c #0A0301",
"o  c #0B0A0A",
"O  c #050909",
"+  c #120100",
"@  c #1C0000",
"#  c #1D0B00",
"$  c #110C09",
"%  c #17100C",
"&  c #1B130E",
"*  c #0B1010",
"=  c #141414",
"-  c #1E1510",
";  c #1B1B1B",
":  c #240000",
">  c #2B0000",
",  c #220D00",
"<  c #2B0E00",
"1  c #350000",
"2  c #3D0000",
"3  c #2D1100",
"4  c #311300",
"5  c #391600",
"6  c #3E1900",
"7  c #211710",
"8  c #241812",
"9  c #2D1F16",
"0  c #241F1B",
"q  c #321D1D",
"w  c #2C211A",
"e  c #34241A",
"r  c #3B291E",
"t  c #1F2020",
"y  c #222222",
"u  c #272929",
"i  c #2B2C2C",
"p  c #3C2F27",
"a  c #372B25",
"s  c #3D312A",
"d  c #333334",
"f  c #3B3B3B",
"g  c #430000",
"h  c #4B0000",
"j  c #530000",
"k  c #5B0000",
"l  c #461B1B",
"z  c #441616",
"x  c #650000",
"c  c #6B0000",
"v  c #750000",
"b  c #7C0000",
"n  c #412E21",
"m  c #4A2020",
"M  c #4B3425",
"N  c #49382E",
"B  c #453328",
"V  c #503728",
"C  c #523929",
"Z  c #5A3F2D",
"A  c #4B3B31",
"S  c #513E31",
"D  c #59473C",
"F  c #70472C",
"G  c #634431",
"H  c #6D4834",
"J  c #744733",
"K  c #7A553D",
"L  c #7A553D",
"P  c #3F4142",
"I  c #434343",
"U  c #4C4C4C",
"Y  c #464748",
"T  c #4E4F50",
"R  c #4E5050",
"E  c #535353",
"W  c #575858",
"Q  c #5C5C5C",
"!  c #6D5749",
"~  c #6A5547",
"^  c #735C4D",
"/  c #785F4F",
"(  c #5F6363",
")  c #646464",
"_  c #6A6A6A",
"`  c #737373",
"'  c #7B7B7B",
"]  c #767778",
"[  c #830000",
"{  c #8A0000",
"}  c #940000",
"|  c #9D0000",
" . c #AE0000",
".. c #B40000",
"X. c #BB0000",
"o. c #C30000",
"O. c #CC0000",
"+. c #D40000",
"@. c #DD0000",
"#. c #E20000",
"$. c #EB0000",
"%. c #845C42",
"&. c #8C6246",
"*. c #916448",
"=. c #97694B",
"-. c #97694B",
";. c #816453",
":. c #866855",
">. c #946E56",
",. c #8F715F",
"<. c #91725F",
"1. c #A06F50",
"2. c #A47252",
"3. c #AA7555",
"4. c #AF7958",
"5. c #B47E5A",
"6. c #9F7D69",
"7. c #BA815D",
"8. c #A6856F",
"9. c #AD8A74",
"0. c #BC947C",
"q. c #C58A62",
"w. c #CA8C65",
"e. c #CF9067",
"r. c #D6956B",
"t. c #D9976C",
"y. c #DE9A6F",
"u. c #C2967B",
"i. c #D89B75",
"p. c #E39E72",
"a. c #E4A074",
"s. c #ECA576",
"d. c #F1A778",
"f. c #F5AB7B",
"g. c #F9AE7C",
"h. c #FFB27F",
"j. c #7F8383",
"k. c #838383",
"l. c #8E8E8E",
"z. c #929292",
"x. c #9B9B9B",
"c. c #A2A2A2",
"v. c #ADADAD",
"b. c #B3B3B3",
"n. c #BBBBBB",
"m. c #D6AA8E",
"M. c #ECAC85",
"N. c #F2AD82",
"B. c #EFB18A",
"V. c #FFB581",
"C. c #FFBA85",
"Z. c #FFB789",
"A. c #FFBA8D",
"S. c #F5B68F",
"D. c #E5B597",
"F. c #EAB99B",
"G. c #FFBF93",
"H. c #F2BFA0",
"J. c #FFC194",
"K. c #FFC49B",
"L. c #FFC89A",
"P. c #FFC5A1",
"I. c #FFCAA4",
"U. c #FFCCAA",
"Y. c #FFD1AE",
"T. c #FFD4B2",
"R. c #C5C5C5",
"E. c #CBCBCB",
"W. c #D3D3D3",
/* pixels */
"                                                                                                                                ",
"                                                                                                                                ",
"                                                                                                                                ",
"                                                                                                                                ",
"                                                                                                                                ",
"                                                                                                                                ",
"                                                  . . .                                                                         ",
"                                                    . . . . d                                                                   ",
"                                                        . X z.U d d                                                             ",
"                                                            O z.l.n.f d y ;     . : : + .                                       ",
"                S C V B                                       . o l.l.E.x.j.u i y g g 1 + .                                     ",
"              p I.V.C.2.% M                                       . = z.E.n.x.z._ u i q : .           X X X                     ",
"              p I.Z.V.q.2.-..                                         = k.k.W.R.x.z.k.) i d y       + , 3 X                     ",
"              p U.K.Z.V.C.*..                                           . = j.z.W.b.x.z.j.l.( d ; X 3 5 , X                     ",
"              s Y.U.I.J.L.>..                                             X 1 z z.W.W.v.l.' k.l.P # 6 4 X                       ",
"            . - :./ ;./ :.N .       . @ > > X .                 . L L ! . . h g z ] z.W.v.l.k.) w 3 5 # .                       ",
"            o f d d d d i t o     . @ k v v j X .     .     . O %.h.A.S./ ~ . @ v 1 m z.W.n.` 0 3 5 # 3 #   . .                 ",
"            ; ] ] ` ` ] _ Y ; .   . 1 b [ [ h J & . L &.& K %.& f.h.h.V.K.P.! @ [ [ c m ( W s < 5 # . # F &.%.:.a               ",
"            = ` ` ` ` ` ) I =     @ k b [ g H s.7.&.f.h.2.g.h.8 s.h.V.g.V.Y.m.@ [ [ [ c @ . # 5 # . G w 2.C.V.I.p               ",
"          = E ` _ ` ` ` ) I =     1 b j > J s.V.h.C.h./ f.h.d.& f.h.V.G.P.F.B . : h { x + X 3 , O . -.w.t.h.G.I.p               ",
"          = ` ` ` ` ` ` ) I ;     + > X N p.h.C.C.V.K X C s.h.2.H g.K.U.D.~ 6.8./ . > @ X 3 , . . . *.C.h.A.P.U.p               ",
"          = ` ` ` ` ` ` ) I =     . . . 1.h.h.K V C . . . a.d.d.& g.U.U.m.0 I.G.B.9.! . , # . .   . >.I.L.I.U.Y.s               ",
"          = ` ` Q ) ` ` ) I = . . E I . -.h.V.w.& %.5.% %.C M r.3.p.M.D.D u.A.V.C.J.B.^ . .       . 0 N A N N N $ .             ",
"          o I E f E ) ] ) I = . U b.R . & 4.s.h.w.f.d.4.M . . e a e M i.3.N.t.n n L J.F.m./       = i U R R R T E =             ",
"          . ; W y _ _ _ U ; U z.c.v.f . . 7 9 w.C.s.V e O . . . . . . e e C 5.. . M C.G.T.,..   . = P _ ` ` ` ` ` ;             ",
"        = W Q _ Q ` ` _ I = Q E.c.z.k.i . . . 3.G 9 . . . . Q o . . . . . O 8 . . X L V.K.,..   . = P _ ` ` ` ` ` =             ",
"        = ` ` ` ` ` _ U i = Q R.x.l.l.k.i . . - X . . . ) ` l.` ` ` ) . . . 8 7.r.&.M V.V.a.G     = P ) ` ` ` ` ` ) =           ",
"        = ` ` ` ` ` _ d . U n.b.x.l.l.l.k.] ] ; . Q ' ] l.l.l.l.l.z.l._ . . 9 p.V.5.. K g.t.w.G . ; A ) ` ` ` ` ` ` =           ",
"        = ` ` ` ` ` _ i I n.c.z.z.l.l.l.z.l.z.k.' l.l.l.l.l.l.l.l.l.l.l._ . . M y.y.e.w.*.% - $ . = I ) ` ` ` ` ` ] =           ",
"        = ` _ ` ` _ U = T E.c.l.l.l.l.l.l.l.l.l.l.l.l.l.l.l.l.l.l.l.l.l.l.) . . M t.y.*.X . . y u = I ) ` ` Q E _ ` =           ",
"        o ` ` ` ` _ I = E R.x.l.l.l.l.l.l.l.l.l.l.k.l.l.k.t ' l.l.k.l.l.l.] O . . V =.X . . . f Q d P ) ` Q W d U f X           ",
"        = ` ` ` ` _ d I R.c.l.l.z.l.l.l.l.l.z.l.) ; _ y o . o o o = k.l.l.l._ X O o o O O O f l.` y ; I ) ` ` y W t O           ",
"        = ` ` ` ` _ i Y E.x.l.l.l.l.l.l.l.l.l.k.W o O + + + + + + + = k.k.l.l.k.l.Q i k.k.l.l.j.Q U t i ) ` ` _ ` _ _ =         ",
"        = ) ` ` ` _ d Y E.c.l.l.l.l.l.l.l.l.) ; X X +  .O.O.@.+.@.O.. O 0 l.l.l.l.l.l.l.l.l.l.z._ u ; u I _ ` ` ` ` ` =         ",
"          = ` ` ` ) d W R.x.l.l.l.l.l.l.` W U = . { ..X.o.X.O.O.#.+.: . = ' z.l.l.l.l.l.l.l.l.l.' Q t = I _ ` ` ` ` ` %         ",
"          = ` ` ] U I R.c.l.l.l.l.z.l.l.` E = . X | X.X.X.X.X.....#.O.: . ; j.l.l.l.l.l.l.l.l.l.' E t ; P Q ` ` ` ` _ =         ",
"          = ) ` ` U A E.c.l.l.l.l.l.l.] Q ; . + } X.X.....X.X.X...O.+.O.: . t l.l.l.l.z.l.l.l.z.` u = i i I _ ` ` ` ` *         ",
"            ; ` ] R U E.c.l.l.l.l.l.z.' Q = . { o.X..... .X.X.X.X.....O.} . ; z.l.l.l.l.l.l.l.l.' Q t ; i I _ ` ` ` ` =         ",
"            = ) ` ( _ E.c.l.l.l.l.l.l.' Q ; . [ X.X.X.X... ...X.X...O.X.> . t z.l.l.l.l.l.l.l.z.' Q t = i I _ ` ` ` ` =         ",
"              = ) U P E.c.l.l.l.l.l.l.` U = @ | X.X.X.X.X..... ...X.X.$.O.. ; l.l.l.z.l.l.l.l.k.' T t t i I _ ` _ ` ` =         ",
"                ; d Y W.x.l.l.l.l.l.] Q ; . [ o.X... ...X.X.X.X. ...o.$.O.. ; z.l.l.l.l.l.l.z.j.Q t ; i u I _ ` ` ` W =         ",
"                  . i c.v.z.l.l.l.l.' W ; . [ o.X... ...X.X.X.X.X. .X.#.{ . ; z.l.l.l.l.l.l.l.j.Q y = i i Y ) ` ` ` =           ",
"                    . I R.x.l.l.l.l.k.) d . [ X.X.X.X... ...X.X.X...O.O.. O I l.l.l.l.l.l.l.z.j.) y = i u I _ ` ` ` =           ",
"                      I b.z.l.l.l.l.l.` Y * [ .. .X.X.X... .X.X.X.o.#.X.. ; z.l.l.l.l.l.l.z.j.] Y t ; i i Y _ ` ` R =           ",
"                      f x.v.l.l.l.l.' W ; . [ X. ...X.X.X. .....X.o.$.+.. = z.l.z.l.l.l.l.l.,.( y = d i u P _ ` ] =             ",
"                        d l.z.l.l.z.' Q ; . [ o.........X.........+.#.v o U l.l.l.l.z.l.l.z.k.Q y = i i u P _ ` U =             ",
"                          I v.z.l.k.] W ; . b X.X.X.....X.X.X.X.O.+.v . = z.l.l.l.l.l.l.l.l.` ) y = i i i D _ U =               ",
"                          U W.b.z.k.` W ; 1  .X.X.X.X.X.......X.@.o.. o E l.l.l.l.l.l.l.l._ Q Y ; t i u f W U =                 ",
"                          f ) z.v.l.' Q ; 2 | ....X.X.X.X.....O.$.@.X * z.l.l.l.l.l.l.l.k.( A * = i i i i i =                   ",
"                              f k.x.' Q ; . [ X...X.X.X.X.X...O.@.x $ E l.l.l.l.l.l.l.l.` Y * . ; i 0 = o                       ",
"                                Q x.) W ; . [ o... .....X.X.+.#.@.. o z.l.l.z.l.l.l.k.` I =   . o = o                           ",
"                                i W ) i O h  .X.X.........X.#.$.k X W l.l.l.l.l.l.l.] T =                                       ",
"                                  ; ; i = > } X.X.X.X... .o.+.k O Q z.l.l.z.l.z.l._ Q f .                                       ",
"                                      U ; . b X.....X...X.@.#.X o l.l.l.l.` ` ` ) I = =                                         ",
"                                      ; o . @ } ......X.O.+.j . X ` ] ] ` W W Y ;                                               ",
"                                        . . b ......O.X.+.+.+ . O E W W U t I =                                                 ",
"                                        . . : ..+.+.@.O.g 1 . d X = = = *   =                                                   ",
"                                          . .  .$.$.@.#.@ . . =                                                                 ",
"                                            . @ > > X.h . .                                                                     ",
"                                            . . . . @ . .                                                                       ",
"                                                    .                                                                           ",
"                                                                                                                                ",
"                                                                                                                                ",
"                                                                                                                                "
};
