/* XPM */
static char *Wall1664093563[] = {
/* columns rows colors chars-per-pixel */
"64 64 24 1 ",
"  c black",
". c #45283C",
"X c #663931",
"o c #336141",
"O c #3E734E",
"+ c #407750",
"@ c #417A52",
"# c #407C52",
"$ c #427C54",
"% c #427E54",
"& c #437E55",
"* c #438056",
"= c #458157",
"- c #468459",
"; c #468659",
": c #46865A",
"> c #47875B",
", c #498A5D",
"< c #4A8D5E",
"1 c #4B8D5F",
"2 c #679647",
"3 c #7AB055",
"4 c #4C9161",
"5 c #4D9262",
/* pixels */
"         O55O       O   O       O        O55O       O   O       ",
"  OO  OOO5555OO   OO5O O5OO   OOO OO  OOO5555OO   OO5O O5OO     ",
" O55OO555555555OOO5555O5555OOO555O55OO555555555OOO5555O5555OOO  ",
" O55555555555555555555555O555OOOOOO55555555555555555555555555O  ",
"  O555555555555555555555O5O5O553355O5555555555555555555555555O  ",
"  O5555555555555555555555O5O55333555O5555555555555555555555555O ",
" O555555555555555555555555O5333535555O555555555555555555555555O ",
" O55555555555555555555555O533333535555O555555555555555555555555O",
" O55555555555555555555555O533335355555O55555555555555555555555O ",
"O55555555555555555555555O533335353555OOO555555555555555555555O  ",
"55555555555555555555555O55353335355555OOO355555555555555555555O ",
"55555555555555555555555O555353535555555OO3555555555555555555555O",
"O5555555555555555555555O5355355555555OOOO355555555555555555555O ",
" O55555555555555555555O5333O5555555OOOOOOO55555555555555555555O ",
" O55555555555555555555O55333OOOOOOO555OOOO5555555555555555555O  ",
"  O5555555555555555555O5333555555555555OOO5555555555555555555O  ",
"  O555555555555555555O5335353553333333O5OOO555555555555555555O  ",
"  O55555555555555555O5533355553333333O5O5OOO555555555555555555O ",
" O555555555555555555O533333535553535O5O5OOO5555555555555555555O ",
" O555555555555555555O55553355555535O5O5O5OO55555555555555555555O",
"O555555555555555555O5555O5O5555555555555OOO555555555555555555555",
" O55555555555555555O53555O5O5O555555555O5OOO55555555555555555555",
"  O5555555555555555O353555O5O5O5O5555555OOOOO555555555555555555O",
" O55555555555555555O3353555OOOOO5O55555555OOO55555555555555555O ",
"O555553555555555555O33353555OOOOO555555555OOO55555555555555535O ",
" O55553555555555555O5333535555555O555555O55OOO5555555555553535O ",
" O55553535555555555OO533353555553333355OO5OOOO555555555555353O  ",
"  O555353555555555OOOO5O535555OOOOOOOOOO5O5OOOO55555555555355O  ",
"  O55555355555555O533OO5O5O55555OOOOOOO5O5O5OOO555555555555555O ",
"  O55555555555555O333OOOOOO5555555OOO55O5O5OOOO555555555555555O ",
" O555555555555555O3333355555555555555555O5OOOOO55555555555555O  ",
" O555555555555553OO5335355555555555555555O5OOOO535555555555555OO",
"OO555555555555535OO553353553333555555555O5OO5OO353555555555555O ",
"  O55555555555553OOO5533553333335555555O5OOOOOO535555555555555O ",
" O55555555555555OOOOO5555553335555555OOOOOOOOOO55555555555555O  ",
" O55555555555555OOOOOOOOO55555555555555555555OO@5555555555555O  ",
"  O5555555555555OOO55555555555555555555535555OO$5555555555555O  ",
"  O5555555555555O5535O555555555OOOO53333555OOOO&55555555555555O ",
" O55533555555555O33535OOO5555OOOOO5335555OOOOOO=55555555555555O ",
" O55553353355555O33355OOOOOOOO5555555555OOO55OO-555555555555555O",
" O55555333555555O333355OOOOOOOOOOOOOOOOOO55555O>55555335555555O ",
"O555555O3O555555O5333335OOOOOOOOOO555555353355O,5555553353355O  ",
"5555555OO5555555O55333335555555555555355333555O<55555553335555O ",
"55555555555555555O55333555553333555335535555OOO55555555O3O55555O",
"O55555555555555555OOO553355555555555555555OOOO+55555555OO55555O ",
" O55555555555555555OOOO5555555OO55555555OOOOOO5555555555555555O ",
" O555555555555555555OOOOO5555OOOOOOOOOOOOOOOO5555555555555555O  ",
"  O5555555555555555555OOOOOOOOOOOOOOOOOOOOOO55555555555555555O  ",
"  O555555555555555555555OOOOOO......OO55555555555555555555555O  ",
"  O5555555555555555555555OOO........55O55555555555555555555555O ",
" O5555555555555555555555555XXXX.X.X.5O5O5555555555555555555555O ",
" O5555555555555555555555555XXXX.X.X.##O555555555555555555555555O",
"O5555555555555555555555####XXXXXX.X..#####5555555555555555555555",
" O5555555555555555555#####X.XXXXX.X..#######55555555555555555555",
"  O55555555555555555#####X..XXXXX.X..X######*555555555555555555O",
" O55555555555555555#########XX.XX.....X#####;55555555555555555O ",
"O555555555555555555*O#2####XXX.X....X2######<55555555555555555O ",
" O555555555555555555##2####X.........X#####*555555555555555555O ",
" O5555555555555555555#2#2##X######o2..##*#O>55555555555555555O  ",
"  O55555555555555555553#2##########oo###O*5555555555555555555O  ",
"  O555555555555555555555355#*#####O*##555555555555555555555555O ",
"  OOO5555O5555OOO555555555OO55O555OOO5555O5555OOO555555555OO55O ",
"     OO5O O5OO   OO5555OOO  OO OOO   OO5O O5OO   OO5555OOO  OO  ",
"       O   O       O55O        O       O   O       O55O         "
};
